<mxfile host="Electron" agent="Mozilla/5.0 (Macintosh; Intel Mac OS X 10_15_7) AppleWebKit/537.36 (KHTML, like Gecko) draw.io/24.7.17 Chrome/128.0.6613.36 Electron/32.0.1 Safari/537.36" version="24.7.17">
  <diagram name="ページ1" id="cKG2I36ORXZr6lROB8Vh">
    <mxGraphModel dx="1434" dy="780" grid="1" gridSize="10" guides="1" tooltips="1" connect="1" arrows="1" fold="1" page="1" pageScale="1" pageWidth="827" pageHeight="1169" math="1" shadow="0">
      <root>
        <mxCell id="0" />
        <mxCell id="1" parent="0" />
        <mxCell id="srJYz0smfri57A-LHfWj-1" value="" style="rounded=0;whiteSpace=wrap;html=1;" parent="1" vertex="1">
          <mxGeometry x="34" y="92" width="380" height="240" as="geometry" />
        </mxCell>
        <mxCell id="srJYz0smfri57A-LHfWj-9" value="" style="group" parent="1" vertex="1" connectable="0">
          <mxGeometry x="64" y="122" width="120" height="40" as="geometry" />
        </mxCell>
        <mxCell id="srJYz0smfri57A-LHfWj-8" style="edgeStyle=orthogonalEdgeStyle;rounded=0;orthogonalLoop=1;jettySize=auto;html=1;" parent="srJYz0smfri57A-LHfWj-9" source="srJYz0smfri57A-LHfWj-2" target="srJYz0smfri57A-LHfWj-3" edge="1">
          <mxGeometry relative="1" as="geometry" />
        </mxCell>
        <mxCell id="srJYz0smfri57A-LHfWj-2" value="" style="shape=waypoint;sketch=0;size=6;pointerEvents=1;points=[];fillColor=none;resizable=0;rotatable=0;perimeter=centerPerimeter;snapToPoint=1;" parent="srJYz0smfri57A-LHfWj-9" vertex="1">
          <mxGeometry x="10" width="20" height="20" as="geometry" />
        </mxCell>
        <mxCell id="srJYz0smfri57A-LHfWj-3" value="" style="shape=waypoint;sketch=0;size=6;pointerEvents=1;points=[];fillColor=none;resizable=0;rotatable=0;perimeter=centerPerimeter;snapToPoint=1;" parent="srJYz0smfri57A-LHfWj-9" vertex="1">
          <mxGeometry x="60" width="20" height="20" as="geometry" />
        </mxCell>
        <mxCell id="srJYz0smfri57A-LHfWj-5" value="&lt;svg style=&quot;vertical-align: -0.339ex;&quot; xmlns:xlink=&quot;http://www.w3.org/1999/xlink&quot; viewBox=&quot;0 -442 1008.6 592&quot; role=&quot;img&quot; height=&quot;1.339ex&quot; width=&quot;2.282ex&quot; xmlns=&quot;http://www.w3.org/2000/svg&quot;&gt;&lt;defs&gt;&lt;path d=&quot;M52 289Q59 331 106 386T222 442Q257 442 286 424T329 379Q371 442 430 442Q467 442 494 420T522 361Q522 332 508 314T481 292T458 288Q439 288 427 299T415 328Q415 374 465 391Q454 404 425 404Q412 404 406 402Q368 386 350 336Q290 115 290 78Q290 50 306 38T341 26Q378 26 414 59T463 140Q466 150 469 151T485 153H489Q504 153 504 145Q504 144 502 134Q486 77 440 33T333 -11Q263 -11 227 52Q186 -10 133 -10H127Q78 -10 57 16T35 71Q35 103 54 123T99 143Q142 143 142 101Q142 81 130 66T107 46T94 41L91 40Q91 39 97 36T113 29T132 26Q168 26 194 71Q203 87 217 139T245 247T261 313Q266 340 266 352Q266 380 251 392T217 404Q177 404 142 372T93 290Q91 281 88 280T72 278H58Q52 284 52 289Z&quot; id=&quot;MJX-2-TEX-I-1D465&quot;&gt;&lt;/path&gt;&lt;path d=&quot;M213 578L200 573Q186 568 160 563T102 556H83V602H102Q149 604 189 617T245 641T273 663Q275 666 285 666Q294 666 302 660V361L303 61Q310 54 315 52T339 48T401 46H427V0H416Q395 3 257 3Q121 3 100 0H88V46H114Q136 46 152 46T177 47T193 50T201 52T207 57T213 61V578Z&quot; id=&quot;MJX-2-TEX-N-31&quot;&gt;&lt;/path&gt;&lt;/defs&gt;&lt;g transform=&quot;scale(1,-1)&quot; stroke-width=&quot;0&quot; fill=&quot;currentColor&quot; stroke=&quot;currentColor&quot;&gt;&lt;g data-mml-node=&quot;math&quot;&gt;&lt;g data-mml-node=&quot;msub&quot;&gt;&lt;g data-mml-node=&quot;mi&quot;&gt;&lt;use xlink:href=&quot;#MJX-2-TEX-I-1D465&quot; data-c=&quot;1D465&quot;&gt;&lt;/use&gt;&lt;/g&gt;&lt;g transform=&quot;translate(605,-150) scale(0.707)&quot; data-mml-node=&quot;mn&quot;&gt;&lt;use xlink:href=&quot;#MJX-2-TEX-N-31&quot; data-c=&quot;31&quot;&gt;&lt;/use&gt;&lt;/g&gt;&lt;/g&gt;&lt;/g&gt;&lt;/g&gt;&lt;/svg&gt;" style="text;html=1;align=center;verticalAlign=middle;resizable=0;points=[];autosize=1;strokeColor=none;fillColor=none;" parent="srJYz0smfri57A-LHfWj-9" vertex="1">
          <mxGeometry y="10" width="40" height="30" as="geometry" />
        </mxCell>
        <mxCell id="srJYz0smfri57A-LHfWj-7" value="$$x_1+e_i$$" style="text;html=1;align=center;verticalAlign=middle;resizable=0;points=[];autosize=1;strokeColor=none;fillColor=none;" parent="srJYz0smfri57A-LHfWj-9" vertex="1">
          <mxGeometry x="30" y="10" width="90" height="30" as="geometry" />
        </mxCell>
        <mxCell id="srJYz0smfri57A-LHfWj-11" style="edgeStyle=orthogonalEdgeStyle;rounded=0;orthogonalLoop=1;jettySize=auto;html=1;" parent="1" source="srJYz0smfri57A-LHfWj-12" target="srJYz0smfri57A-LHfWj-13" edge="1">
          <mxGeometry relative="1" as="geometry" />
        </mxCell>
        <mxCell id="srJYz0smfri57A-LHfWj-12" value="" style="shape=waypoint;sketch=0;size=6;pointerEvents=1;points=[];fillColor=none;resizable=0;rotatable=0;perimeter=centerPerimeter;snapToPoint=1;" parent="1" vertex="1">
          <mxGeometry x="289" y="182" width="20" height="20" as="geometry" />
        </mxCell>
        <mxCell id="srJYz0smfri57A-LHfWj-13" value="" style="shape=waypoint;sketch=0;size=6;pointerEvents=1;points=[];fillColor=none;resizable=0;rotatable=0;perimeter=centerPerimeter;snapToPoint=1;" parent="1" vertex="1">
          <mxGeometry x="339" y="182" width="20" height="20" as="geometry" />
        </mxCell>
        <mxCell id="srJYz0smfri57A-LHfWj-15" value="$$x_3+e_i$$" style="text;html=1;align=center;verticalAlign=middle;resizable=0;points=[];autosize=1;strokeColor=none;fillColor=none;" parent="1" vertex="1">
          <mxGeometry x="309" y="192" width="90" height="30" as="geometry" />
        </mxCell>
        <mxCell id="srJYz0smfri57A-LHfWj-16" value="$$x_3$$" style="text;html=1;align=center;verticalAlign=middle;resizable=0;points=[];autosize=1;strokeColor=none;fillColor=none;" parent="1" vertex="1">
          <mxGeometry x="264" y="192" width="70" height="30" as="geometry" />
        </mxCell>
        <mxCell id="srJYz0smfri57A-LHfWj-17" style="edgeStyle=orthogonalEdgeStyle;rounded=0;orthogonalLoop=1;jettySize=auto;html=1;" parent="1" source="srJYz0smfri57A-LHfWj-18" target="srJYz0smfri57A-LHfWj-19" edge="1">
          <mxGeometry relative="1" as="geometry" />
        </mxCell>
        <mxCell id="srJYz0smfri57A-LHfWj-18" value="" style="shape=waypoint;sketch=0;size=6;pointerEvents=1;points=[];fillColor=none;resizable=0;rotatable=0;perimeter=centerPerimeter;snapToPoint=1;" parent="1" vertex="1">
          <mxGeometry x="119" y="252" width="20" height="20" as="geometry" />
        </mxCell>
        <mxCell id="srJYz0smfri57A-LHfWj-19" value="" style="shape=waypoint;sketch=0;size=6;pointerEvents=1;points=[];fillColor=none;resizable=0;rotatable=0;perimeter=centerPerimeter;snapToPoint=1;" parent="1" vertex="1">
          <mxGeometry x="169" y="252" width="20" height="20" as="geometry" />
        </mxCell>
        <mxCell id="srJYz0smfri57A-LHfWj-20" value="$$x_2+e_i$$" style="text;html=1;align=center;verticalAlign=middle;resizable=0;points=[];autosize=1;strokeColor=none;fillColor=none;" parent="1" vertex="1">
          <mxGeometry x="139" y="262" width="90" height="30" as="geometry" />
        </mxCell>
        <mxCell id="srJYz0smfri57A-LHfWj-21" value="$$x_2$$" style="text;html=1;align=center;verticalAlign=middle;resizable=0;points=[];autosize=1;strokeColor=none;fillColor=none;" parent="1" vertex="1">
          <mxGeometry x="94" y="262" width="70" height="30" as="geometry" />
        </mxCell>
        <mxCell id="srJYz0smfri57A-LHfWj-23" value="オラクル" style="shape=umlActor;verticalLabelPosition=bottom;verticalAlign=top;html=1;outlineConnect=0;fillColor=#dae8fc;strokeColor=#6c8ebf;" parent="1" vertex="1">
          <mxGeometry x="460" y="192" width="30" height="60" as="geometry" />
        </mxCell>
        <mxCell id="srJYz0smfri57A-LHfWj-25" value="$$\{0,1\}^n$$" style="text;html=1;align=center;verticalAlign=middle;resizable=0;points=[];autosize=1;strokeColor=none;fillColor=none;" parent="1" vertex="1">
          <mxGeometry x="20" y="95" width="90" height="30" as="geometry" />
        </mxCell>
        <mxCell id="srJYz0smfri57A-LHfWj-26" value="" style="shape=callout;whiteSpace=wrap;html=1;perimeter=calloutPerimeter;position2=0.04;size=30;position=0.15;rounded=1;" parent="1" vertex="1">
          <mxGeometry x="495" y="34" width="135" height="152" as="geometry" />
        </mxCell>
        <mxCell id="srJYz0smfri57A-LHfWj-28" value="$$f(x_1+e_i)=0$$" style="text;html=1;align=center;verticalAlign=middle;resizable=0;points=[];autosize=1;strokeColor=none;fillColor=none;" parent="1" vertex="1">
          <mxGeometry x="500" y="40" width="120" height="30" as="geometry" />
        </mxCell>
        <mxCell id="srJYz0smfri57A-LHfWj-30" value="$$f(x_2+e_i)=0$$" style="text;html=1;align=center;verticalAlign=middle;resizable=0;points=[];autosize=1;strokeColor=none;fillColor=none;" parent="1" vertex="1">
          <mxGeometry x="499" y="77" width="120" height="30" as="geometry" />
        </mxCell>
        <mxCell id="srJYz0smfri57A-LHfWj-32" value="$$f(x_3+e_i)=1$$" style="text;html=1;align=center;verticalAlign=middle;resizable=0;points=[];autosize=1;strokeColor=none;fillColor=none;" parent="1" vertex="1">
          <mxGeometry x="498" y="114" width="120" height="30" as="geometry" />
        </mxCell>
        <mxCell id="srJYz0smfri57A-LHfWj-33" value="アルゴリズム" style="shape=umlActor;verticalLabelPosition=bottom;verticalAlign=top;html=1;outlineConnect=0;fillColor=#f8cecc;strokeColor=#b85450;" parent="1" vertex="1">
          <mxGeometry x="480" y="400" width="30" height="60" as="geometry" />
        </mxCell>
        <mxCell id="srJYz0smfri57A-LHfWj-34" value="" style="shape=callout;whiteSpace=wrap;html=1;perimeter=calloutPerimeter;position2=0;size=30;position=0.15;rounded=1;" parent="1" vertex="1">
          <mxGeometry x="530" y="230" width="220" height="180" as="geometry" />
        </mxCell>
        <mxCell id="srJYz0smfri57A-LHfWj-35" value="$$g(x_1)=1$$" style="text;html=1;align=center;verticalAlign=middle;resizable=0;points=[];autosize=1;strokeColor=none;fillColor=none;" parent="1" vertex="1">
          <mxGeometry x="525" y="242" width="100" height="30" as="geometry" />
        </mxCell>
        <mxCell id="srJYz0smfri57A-LHfWj-36" value="$$g(x_2)=0$$" style="text;html=1;align=center;verticalAlign=middle;resizable=0;points=[];autosize=1;strokeColor=none;fillColor=none;" parent="1" vertex="1">
          <mxGeometry x="525" y="272" width="100" height="30" as="geometry" />
        </mxCell>
        <mxCell id="srJYz0smfri57A-LHfWj-37" value="$$g(x_3)=1$$" style="text;html=1;align=center;verticalAlign=middle;resizable=0;points=[];autosize=1;strokeColor=none;fillColor=none;" parent="1" vertex="1">
          <mxGeometry x="525" y="302" width="100" height="30" as="geometry" />
        </mxCell>
        <mxCell id="srJYz0smfri57A-LHfWj-38" value="オラクルとの差分の多数決をとると" style="text;html=1;align=center;verticalAlign=middle;resizable=0;points=[];autosize=1;strokeColor=none;fillColor=none;" parent="1" vertex="1">
          <mxGeometry x="535" y="332" width="210" height="30" as="geometry" />
        </mxCell>
        <mxCell id="srJYz0smfri57A-LHfWj-39" value="$$\widetilde{c}_i=1$$" style="text;html=1;align=center;verticalAlign=middle;resizable=0;points=[];autosize=1;strokeColor=none;fillColor=none;" parent="1" vertex="1">
          <mxGeometry x="560" y="350" width="140" height="30" as="geometry" />
        </mxCell>
        <mxCell id="srJYz0smfri57A-LHfWj-40" value="と推定." style="text;html=1;align=center;verticalAlign=middle;resizable=0;points=[];autosize=1;strokeColor=none;fillColor=none;" parent="1" vertex="1">
          <mxGeometry x="610" y="302" width="60" height="30" as="geometry" />
        </mxCell>
      </root>
    </mxGraphModel>
  </diagram>
</mxfile>
